<svg id="Layer_1" data-name="Layer 1" xmlns="http://www.w3.org/2000/svg" xmlns:xlink="http://www.w3.org/1999/xlink" viewBox="0 0 280 300"><defs><style>.cls-1{fill:url(#radial-gradient);}.cls-2{fill:url(#radial-gradient-2);}.cls-3{fill:url(#radial-gradient-3);}.cls-4{fill:#002d6a;}.cls-5{fill:none;stroke:#002d6a;stroke-miterlimit:10;stroke-width:0.71px;}</style><radialGradient id="radial-gradient" cx="0.11" cy="300.51" r="0.5" gradientTransform="matrix(94.48, -0.81, -0.81, -94.48, 388.71, 28542.82)" gradientUnits="userSpaceOnUse"><stop offset="0" stop-color="#fff"/><stop offset="0.27" stop-color="#fff"/><stop offset="0.65" stop-color="#fff"/><stop offset="1" stop-color="#d6d7dd"/></radialGradient><radialGradient id="radial-gradient-2" cx="0.51" cy="300.51" r="0.5" gradientTransform="matrix(94.48, -0.81, -0.81, -94.48, 313.71, 28543.63)" gradientUnits="userSpaceOnUse"><stop offset="0" stop-color="#f7ed1a"/><stop offset="0.19" stop-color="#f7ed1a"/><stop offset="1" stop-color="#ef7c29"/></radialGradient><radialGradient id="radial-gradient-3" cx="0.89" cy="300.51" r="0.5" gradientTransform="matrix(94.49, -0.81, -0.81, -94.49, 242.08, 28546.95)" xlink:href="#radial-gradient"/></defs><g id="layer6"><g id="g4668"><g id="g4663"><path id="path4497" class="cls-1" d="M185.33,104c-4.85-3.07-10.62-4.18-16.74-3.77-18.1,1.19-39.35,15.61-49.63,31.89-13.76,21.78-9.34,49.26,9.86,61.39a37,37,0,0,0,18.31,5.65c15.44.66,31.63-7.76,41.36-23.15,13.75-21.77,16-59.9-3.16-72"/><path id="path4491" class="cls-2" d="M133.63,100.47c-.76,0-1.52,0-2.28.08-18.11,1.2-39.36,15.62-49.63,31.89C68,154.22,72.38,181.7,91.58,193.83a36.91,36.91,0,0,0,18.31,5.65,42.46,42.46,0,0,0,19-3.55c-30.59-16-23.36-50.28-14-63.87,7.25-11.49,20.37-22.28,33.37-27.59l-.23-.15A26.56,26.56,0,0,0,133.63,100.47Z"/><path id="path4485" class="cls-3" d="M98.24,100.78c-18.6,0-41.35,15-52.09,32C32.39,154.53,36.8,182,56,194.14c11.05,7,24.59,7.34,36.72,2.24A36.93,36.93,0,0,1,88,193.87c-19.2-12.13-23.61-39.61-9.86-61.39,7.41-11.74,20.53-22.5,34.05-28A26.59,26.59,0,0,0,98.24,100.78Z"/></g></g></g><g id="layer8"><g id="g4693"><path id="path4703" class="cls-4" d="M121.22,139.4l-.75,2.29a8.57,8.57,0,0,1,2.54-2.06,6.32,6.32,0,0,1,2.92-.7,4.17,4.17,0,0,1,2.92.88,2.94,2.94,0,0,1,1,2.31,22.15,22.15,0,0,1-.86,4.66l-4.51,17.44-7.57.07L121.36,147a17.27,17.27,0,0,0,.65-3.13c0-.38-.27-.57-.77-.56a1.28,1.28,0,0,0-1.16.66,19.92,19.92,0,0,0-1.1,3.46l-4.36,16.84-7.56.06,6.44-24.9,7.72-.07"/><path id="path4705" class="cls-4" d="M140.8,148.08l.48-1.83a9.16,9.16,0,0,0,.43-2.51c0-.38-.26-.56-.68-.56a1.22,1.22,0,0,0-1.09.49,12.06,12.06,0,0,0-.86,2.59l-.47,1.84Zm6.52,4-9.75.09-1.4,5.38a6,6,0,0,0-.32,2.18c.07.32.34.48.79.48a1.54,1.54,0,0,0,1.3-.65,9,9,0,0,0,.93-2.52l.85-3.29,7.19-.06-.48,1.84a19.46,19.46,0,0,1-1.2,3.55,10.51,10.51,0,0,1-2,2.66,9.7,9.7,0,0,1-3.25,2.13,11.77,11.77,0,0,1-4.29.73,10.36,10.36,0,0,1-4-.65,4.62,4.62,0,0,1-2.36-1.88,5.35,5.35,0,0,1-.73-2.65,18.13,18.13,0,0,1,.7-4.23l1.89-7.25a15.44,15.44,0,0,1,2.2-5.16,9,9,0,0,1,3.63-2.91,11.86,11.86,0,0,1,4.85-1,8.59,8.59,0,0,1,4.93,1.16,4.61,4.61,0,0,1,2.07,3.18,14.61,14.61,0,0,1-.62,5.61l-.86,3.3"/><path id="path4707" class="cls-4" d="M177.53,138.92,168,163.85l-8.13.07q.53-4.56,1.56-12.08-1.26,3.34-2.67,6.67l-2.18,5.43-8.13.08,3.25-24.88,6.46-.06c-.1.65-.77,5.41-2,14.31q.56-1.42,5.43-14.33l6.17-.06-2.14,14.31q2-6.31,5.43-14.34l6.48-.05"/><path id="path4709" class="cls-4" d="M186.92,147.64l.47-1.84a9.65,9.65,0,0,0,.44-2.51.6.6,0,0,0-.68-.56,1.22,1.22,0,0,0-1.1.49,11.85,11.85,0,0,0-.85,2.6l-.48,1.83Zm6.51,4-9.75.08-1.4,5.39a6.22,6.22,0,0,0-.32,2.17c.07.33.33.49.8.49a1.53,1.53,0,0,0,1.29-.66,9,9,0,0,0,.93-2.51l.86-3.29,7.18-.06-.48,1.83a18.71,18.71,0,0,1-1.2,3.55,10.51,10.51,0,0,1-2,2.66,9.65,9.65,0,0,1-3.24,2.13,11.82,11.82,0,0,1-4.3.74,10.13,10.13,0,0,1-4-.66,4.57,4.57,0,0,1-2.36-1.88,5.24,5.24,0,0,1-.72-2.65,17.12,17.12,0,0,1,.7-4.22l1.87-7.26a15.38,15.38,0,0,1,2.22-5.15,8.86,8.86,0,0,1,3.62-2.92,11.86,11.86,0,0,1,4.85-1,8.51,8.51,0,0,1,4.93,1.17,4.57,4.57,0,0,1,2.07,3.18,14.63,14.63,0,0,1-.62,5.61l-.86,3.3"/><path id="path4711" class="cls-4" d="M207.19,145.21a7.11,7.11,0,0,0,.36-2.18c-.06-.31-.31-.47-.74-.47a1.3,1.3,0,0,0-1.07.55,6.42,6.42,0,0,0-.82,2.12l-2.17,8.38a7.15,7.15,0,0,0-.36,2.16c.05.33.29.5.74.49a1.25,1.25,0,0,0,1.12-.6,11.77,11.77,0,0,0,.94-2.73Zm9.28-6.67-5,19.19a48.88,48.88,0,0,1-1.49,5,7.33,7.33,0,0,1-1.89,2.41,9.45,9.45,0,0,1-3.52,2,16.53,16.53,0,0,1-5,.71,10,10,0,0,1-5.49-1.18q-1.86-1.22-1-4.83l7.34-.07c-.29,1.13,0,1.69.78,1.68a1.57,1.57,0,0,0,1.28-.52,6.4,6.4,0,0,0,.84-2.16l.49-1.9a10,10,0,0,1-2.39,1.35,7,7,0,0,1-2.38.48,5.21,5.21,0,0,1-3.15-.8,3,3,0,0,1-1.26-2.15,11.26,11.26,0,0,1,.49-3.81l2.34-9a10.58,10.58,0,0,1,2.6-5.11,6.15,6.15,0,0,1,4.27-1.59,4.81,4.81,0,0,1,2.44.56,4.38,4.38,0,0,1,1.65,1.73l1-1.89,7.05-.06"/><path id="path4713" class="cls-4" d="M227.08,145a7.46,7.46,0,0,0,.36-2.18c-.05-.32-.3-.47-.74-.46a1.31,1.31,0,0,0-1.08.54,7.27,7.27,0,0,0-.81,2.11l-2.17,8.39a7,7,0,0,0-.35,2.16c0,.33.29.49.73.49a1.24,1.24,0,0,0,1.12-.61,11.45,11.45,0,0,0,.94-2.72Zm9.28-6.67-5,19.19a44.11,44.11,0,0,1-1.48,5A7.19,7.19,0,0,1,228,165a9.45,9.45,0,0,1-3.52,2,16.48,16.48,0,0,1-5,.71,9.94,9.94,0,0,1-5.48-1.18c-1.26-.81-1.59-2.42-1-4.83l7.34-.06c-.28,1.12,0,1.68.78,1.67a1.56,1.56,0,0,0,1.28-.52,6.64,6.64,0,0,0,.84-2.15l.5-1.91a10.39,10.39,0,0,1-2.4,1.35,6.47,6.47,0,0,1-2.38.47,5.21,5.21,0,0,1-3.15-.79,3,3,0,0,1-1.25-2.15,11.26,11.26,0,0,1,.49-3.81l2.33-9a10.5,10.5,0,0,1,2.6-5.11,6.11,6.11,0,0,1,4.28-1.59,4.8,4.8,0,0,1,2.43.56,4.25,4.25,0,0,1,1.65,1.73l1-1.89,7-.06"/><path id="path4715" class="cls-4" d="M239.59,140.23h.46c.21,0,.38-.12.37-.27a.31.31,0,0,0-.3-.33h-.53Zm-.43,1.2v-2.14h1a1.19,1.19,0,0,1,.43.06.47.47,0,0,1,.24.2.85.85,0,0,1,.11.35.54.54,0,0,1-.13.39.79.79,0,0,1-.45.21.53.53,0,0,1,.13.06,1.4,1.4,0,0,1,.23.29l.37.58h-.57c-.17-.24-.28-.51-.46-.74a.25.25,0,0,0-.24-.1h-.18v.84h-.43"/><path id="path4717" class="cls-5" d="M241.86,140.39a1.82,1.82,0,1,1-1.82-1.81A1.81,1.81,0,0,1,241.86,140.39Z"/></g></g></svg>