<?xml version="1.0" encoding="utf-8"?>
<!-- Generator: Adobe Illustrator 24.2.0, SVG Export Plug-In . SVG Version: 6.00 Build 0)  -->
<svg version="1.1" id="Layer_1" xmlns="http://www.w3.org/2000/svg" xmlns:xlink="http://www.w3.org/1999/xlink" x="0px" y="0px"
	 viewBox="0 0 1000 1000" style="enable-background:new 0 0 1000 1000;" xml:space="preserve">
<style type="text/css">
	.st0{fill-rule:evenodd;clip-rule:evenodd;fill:#37B7EA;}
</style>
<g>
	<path class="st0" d="M497.7,428.9c-4.5-5.2-6.1-11.7-5-19.3c1.1-7.6,4.7-14,10.7-19.3c6-5.3,12.8-7.9,20.4-7.9
		c7.6,0,13.6,2.6,18,7.9c4.5,5.2,6.1,11.7,5,19.3c-1.1,7.6-4.7,14-10.7,19.3c-6,5.2-12.8,7.9-20.4,7.9
		C508.2,436.7,502.1,434.1,497.7,428.9 M437.3,455.1c-8.9,0-17.2,7.2-18.4,16.1l-9,65.9c-1,7.2-4.4,13.4-10.3,18.7
		c-5.9,5.3-12.5,7.9-19.9,7.9c-7.1,0-12.9-2.6-17.4-7.8c-4.4-5.2-6.1-11.5-5.1-18.8l5.5-40c0.2-8-5.8-14.2-14.1-14.2h-21.6
		c-8.3,0-16,6.2-18,14.2l-5.6,40c-1,7.4-4.5,13.7-10.3,18.8c-5.9,5.2-12.4,7.8-19.5,7.8c-7.1,0-13-2.6-17.5-7.9
		c-4.5-5.3-6.3-11.5-5.3-18.7l12.1-87.5c1.3-8.5-3.8-17.4-11.5-21c0,0-91.2-38-97.1-40.5c-6-2.5-12.8,3.1-15.2,12.3l-5.6,22
		c-2.3,9.2,2.9,19.7,11.7,23.3l61.1,25.3l-9.2,66.1c-3.1,22.2,2.1,41.1,15.6,56.8c13.5,15.7,31.2,23.6,53.3,23.6
		c20.4,0,39-6.9,55.8-20.6c13.4,13.7,30.2,20.6,50.4,20.6c22.1,0,42-7.9,59.9-23.6c17.8-15.7,28.3-34.7,31.4-56.8
		c0,0,9.6-69.7,9.8-71c0.8-6.1-5.8-11-14.6-11L437.3,455.1L437.3,455.1z M526.9,454.3h-19.1c-8,0-15.4,6.5-16.5,14.5
		c0,0-19.2,137.4-19.3,138.1c-0.8,5.5,5.2,9.9,13.2,9.9h19.1c8,0,15.4-6.5,16.5-14.5L540,464.2C540.8,458.8,534.8,454.3,526.9,454.3
		 M854.4,472.4c-11-12.9-25.8-19.4-44.5-19.4c-18.7,0-36.2,4.1-53.4,19l12.2-84.6c0.8-5.6-5.3-10.1-13.4-10.1h-19.5
		c-8.2,0-15.8,6.6-16.9,14.8l-31.3,215.4c-0.8,5.6,5.3,10.1,13.4,10.1h19.5c8,0,15.4-6.4,16.8-14.3h0l9.8-67.2
		c2-13.6,7.2-23.9,15.6-30.9c8.4-7,17.6-10.5,27.6-10.5c20.1,0,28.3,13.4,24.4,40.1l-10.5,72.5c-0.8,5.6,5.3,10.1,13.4,10.1h19.5
		c8.2,0,15.7-6.6,16.9-14.8l12-78.5C869.2,502.5,865.3,485.3,854.4,472.4 M673.3,496.2l9.1-11.6c3.9-4.9,4-12.5,0.2-17.7
		c-1.6-2.8-6.4-5.5-10.7-7.9l-0.5-0.3c-13.7-7.4-27.2-10.2-45.1-9.4c-19.4,0.9-36,6.7-49.2,17c-13.4,10.4-20.9,23.6-22.4,39.2
		c-1.5,15.8,3.8,27.7,15.9,35.1c5.7,3.6,11,6.4,15.6,8.2c4.6,1.8,11.3,4,20,6.4c8.5,2.4,14.9,5,19.1,7.9c3.9,2.7,5.6,5.5,5.3,8.7
		c-0.3,3.4-2.1,6.1-5.3,8.3c-3.4,2.3-7.9,3.6-13.3,3.9c-14.8,0.7-28.8-2.7-41.5-10.3l-9.4-5.2c-1.6-0.8-3.3-1.2-5.1-1.2
		c-2.9,0.1-5.6,1.5-7.4,3.8l-13.5,17.9c-1.4,1.8-1.9,4-1.5,6.2c0.4,2.1,1.6,3.9,3.4,5.1c4.4,3.5,9,6.5,13.7,9.1
		c6.2,3.4,12.7,6.1,19.5,8.1c12.8,3.8,25.5,5.4,37.7,4.8c18.4-0.9,34.3-6.7,47.3-17.3c13.1-10.6,20.5-24.4,22.1-41
		c1.6-16.9-3.2-28.8-14.4-35.6c-5.7-3.4-10.8-5.9-15.1-7.5c-4.2-1.5-11.4-3.7-21.3-6.5c-9.8-2.7-16.8-5.2-20.9-7.3
		c-3.6-1.9-5.1-4.5-4.7-8c0.7-6.7,7.5-10.4,20.5-11.1c10.4-0.5,20.8,1.9,31,7.1c2.1,1.1,4.4,2.5,6.5,3.9c2.6,1.5,4.6,2,6.5,1.9
		C668.2,501.1,670.7,499.6,673.3,496.2L673.3,496.2z"/>
</g>
</svg>
