<?xml version="1.0" encoding="utf-8"?>
<!-- Generator: Adobe Illustrator 24.2.0, SVG Export Plug-In . SVG Version: 6.00 Build 0)  -->
<svg version="1.1" id="Layer_1" xmlns="http://www.w3.org/2000/svg" xmlns:xlink="http://www.w3.org/1999/xlink" x="0px" y="0px"
	 viewBox="0 0 1000 1000" style="enable-background:new 0 0 1000 1000;" xml:space="preserve">
<style type="text/css">
	.st0{fill-rule:evenodd;clip-rule:evenodd;}
</style>
<g>
	<path class="st0" d="M500.6,273.7c89.5,0,162.4,72.3,162.4,160.9c0,88.6-73,160.9-162.4,160.9c-89.5,0-162.4-72.3-162.4-160.9
		C338.2,346,411.1,273.7,500.6,273.7L500.6,273.7z M501.5,298.2c75.9,0,137.8,61.3,137.8,136.5c0,75.2-61.9,136.5-137.8,136.5
		s-137.8-61.3-137.8-136.5C363.7,359.5,425.6,298.2,501.5,298.2L501.5,298.2z" style="fill:oklch(70.82% 0.174 54.39);"/>
	<path class="st0" d="M501.3,321l-26.5,77.9h-84.7l65.3,48.8l-21.6,81.7l67.5-49.1l69.7,49.2l-21.7-81.8l63.9-48l-84.9-0.8
		C528.5,398.9,501.6,320.1,501.3,321L501.3,321z" style="fill:oklch(70.82% 0.174 54.39);"/>
	<path class="st0" d="M207.2,641H163c0,0-18.4,1.5-18.4,19.2c0,17.7,0,47.1,0,47.1s-1.3,14.7,17.1,18.9h45.5v-18.9H165v-47.1h42.3
		V641L207.2,641z" style="fill:oklch(70.82% 0.174 54.39);"/>
	<path class="st0" d="M284.5,641h-31.9h-2c0,0-18.4,1.5-18.4,19.2c0,17.7,0,47.1,0,47.1s-1.3,14.7,17.1,18.9h3.3h31.9h3.3
		c18.4-4.2,17.1-18.9,17.1-18.9s0-29.4,0-47.1c0-17.7-18.4-19.2-18.4-19.2H284.5L284.5,641z M284.4,707.3h-31.9v-47.1h16h16V707.3
		L284.4,707.3z" style="fill:oklch(70.82% 0.174 54.39);"/>
	<path class="st0" d="M330.7,641h50.3c0,0,16.1,3.5,16.1,19.2c0,15.7,0,66,0,66h-20.4v-66h-25.9v66h-20.1V641L330.7,641z" style="fill:oklch(70.82% 0.174 54.39);"/>
	<polygon class="st0" points="415.3,641 442.2,726.3 470.6,726.3 498.3,641 475.9,641 456.5,707.3 437.7,641 415.3,641 	" style="fill:oklch(70.82% 0.174 54.39);"/>
	<path class="st0" d="M579,641h-43c0,0-18.9,0.5-19.6,19.2l-0.3,47.1c0,0,0.3,18.9,19.9,18.9h43v-18.9h-43v-14.7h43v-17.7l-43-0.5
		v-14.2h43V641L579,641z" style="fill:oklch(70.82% 0.174 54.39);"/>
	<path class="st0" d="M608,641h47c0,0,19.9,0,19.9,18.7v14.7c0,0,0.5,14.5-15.1,18.9l17.6,32.9h-20.9l-17.1-33.9h-11.6v33.9H608V641
		L608,641z M627.8,659.7H655v14.7h-27.2V659.7L627.8,659.7z" style="fill:oklch(70.82% 0.174 54.39);"/>
	<path class="st0" d="M764.2,641h-47.3c0,0-16.5,4-16.3,18.7v14.7c0,0-1.1,17.6,16.3,17.8h30v15.1h-46.6v18.9h50.3
		c0,0,15.4-2,16.3-18.9l-0.2-17.4c0,0-0.7-11.7-15.6-15.5h-30.3v-14.7h43.3V641L764.2,641z" style="fill:oklch(70.82% 0.174 54.39);"/>
	<path class="st0" d="M855.4,641h-42.6c0,0-17.9-0.5-19.8,18.7l0.2,48.1c0,0,0.5,18.5,19.6,18.5h42.6v-18.5h-42.6V693h42.6v-18.5
		h-42.6v-14.7h42.6V641L855.4,641z" style="fill:oklch(70.82% 0.174 54.39);"/>
	<polygon class="st0" points="501.5,504.3 503.3,504.3 506.1,511.5 508.9,504.3 510.7,504.3 510.7,513.4 509.5,513.4 509.5,506.1 
		506.7,513.4 505.5,513.4 502.8,506.4 502.8,513.4 501.5,513.4 501.5,504.3 	" style="fill:oklch(70.82% 0.174 54.39);"/>
	<polygon class="st0" points="493,504.3 493,505.3 496.2,505.3 496.2,513.4 497.5,513.4 497.5,505.3 500.6,505.3 500.6,504.3 
		493,504.3 	" style="fill:oklch(70.82% 0.174 54.39);"/>
</g>
</svg>
