<?xml version="1.0" encoding="iso-8859-1"?>
<!-- Generator: Adobe Illustrator 21.0.0, SVG Export Plug-In . SVG Version: 6.00 Build 0)  -->
<svg version="1.1" id="Capa_1" xmlns="http://www.w3.org/2000/svg" xmlns:xlink="http://www.w3.org/1999/xlink" x="0px" y="0px"
	 viewBox="0 0 244.74 108.74" style="enable-background:new 0 0 244.74 108.74;" xml:space="preserve">
<g>
	<path d="M227.7,100.81L192.92,5.06L192.89,5h-0.69l-7.16,19.68L172.01,60.5l-0.03-0.03c-4.52-3.99-10.89-6.48-18.92-7.41
		l-2.45-0.25l2.43-0.31c13.24-2.38,22.14-10.74,22.14-20.82c0-13.82-12.99-23.46-31.61-23.46h-38.73v0.7h11.25v71.39L88.76,5.06
		L88.74,5h-0.69l-7.16,19.68l-27.62,75.89l-0.17,0.02c-0.47,0.06-0.94,0.1-1.4,0.14c-0.7,0.05-1.39,0.09-2.08,0.09H21.71L74.76,8.92
		l0.39-0.69H10.27v28.43h0.69c0.12-13.85,8.19-27.74,26-27.74h21.49L5,101.5h72.01V74.27h-0.69c-0.09,12.07-6.93,23.53-21.81,26.12
		l-0.47,0.08l11.33-31.14h31.74l11.44,31.49H97.26v0.69h44.28v-0.69h-11.33v-47.5h13.07c13.3,0,20.93,5.94,20.93,16.3v8.43
		c0,0.93,0.06,2.28,0.13,3.42v0.04l-7.03,19.3h-9.18v0.69h19v-0.69h-9.08l6.4-17.58c0.01,0.17,0.02,0.27,0.02,0.27l0.18,1.58
		l0.17,1.05c1.07,6.48,3.55,11.25,7.37,14.16l0.55,0.4c2.9,2.02,6.51,3.04,10.72,3.04c5.58,0,9.31-1.39,12.38-4.67l-0.4-0.38
		c-2.83,2.61-5.21,3.67-8.19,3.67c-5.07,0-7.73-6.15-7.73-12.22V78.33c0.03-2.93-0.43-5.84-1.36-8.62l-0.13-0.37v-0.01h23.22
		l11.44,31.49h-11.28v0.69h38.32v-0.69L227.7,100.81L227.7,100.81z M65.62,68.64l15.64-42.96l15.6,42.96H65.62L65.62,68.64z
		 M130.22,52.63V8.92h9.98c13.33,0,20.37,7.92,20.37,22.91c0,15.94-4.04,20.8-17.28,20.8H130.22L130.22,52.63z M177.78,68.64
		l-0.07-0.17c-1.03-2.51-2.53-4.81-4.43-6.75l-0.65-0.65l-0.07-0.07l12.84-35.31L201,68.64H177.78L177.78,68.64z" style="fill:oklch(70.82% 0.174 54.39);"/>
</g>
</svg>
